<mxfile host="65bd71144e">
    <diagram id="MiEELOnIaTmyHQfe0Bcu" name="Vipera">
        <mxGraphModel dx="1378" dy="787" grid="1" gridSize="12" guides="1" tooltips="1" connect="1" arrows="1" fold="1" page="1" pageScale="1" pageWidth="1169" pageHeight="827" math="0" shadow="0">
            <root>
                <mxCell id="0"/>
                <mxCell id="1" parent="0"/>
                <mxCell id="2" value="☁️ [SERVER] Google Cloud - Firebase" style="swimlane;whiteSpace=wrap;html=1;dashed=1;container=0;" parent="1" vertex="1">
                    <mxGeometry x="435" y="36" width="696" height="396" as="geometry">
                        <mxRectangle x="160" y="410" width="200" height="30" as="alternateBounds"/>
                    </mxGeometry>
                </mxCell>
                <mxCell id="92" value="" style="edgeStyle=elbowEdgeStyle;elbow=vertical;endArrow=classicThin;html=1;rounded=1;endSize=8;startSize=8;startArrow=classicThin;startFill=1;endFill=1;exitX=0.992;exitY=0.529;exitDx=0;exitDy=0;jumpSize=12;entryX=0.5;entryY=1;entryDx=0;entryDy=0;exitPerimeter=0;" parent="1" source="74" target="95" edge="1">
                    <mxGeometry width="50" height="50" relative="1" as="geometry">
                        <mxPoint x="924" y="540" as="sourcePoint"/>
                        <mxPoint x="1084" y="480" as="targetPoint"/>
                        <Array as="points">
                            <mxPoint x="948" y="540"/>
                            <mxPoint x="940" y="468"/>
                            <mxPoint x="928" y="492"/>
                            <mxPoint x="924" y="504"/>
                        </Array>
                    </mxGeometry>
                </mxCell>
                <mxCell id="27" value="&lt;h1 style=&quot;font-size: 17px;&quot;&gt;Benefits&lt;/h1&gt;&lt;div style=&quot;&quot;&gt;&lt;font style=&quot;&quot;&gt;&lt;div style=&quot;font-size: 13px;&quot;&gt;&lt;span style=&quot;background-color: initial;&quot;&gt;• SLA &amp;gt; 99,5%&amp;nbsp;&lt;/span&gt;&lt;/div&gt;&lt;div style=&quot;font-size: 13px;&quot;&gt;• Google Analytics native integration&amp;nbsp;&lt;/div&gt;&lt;div style=&quot;font-size: 13px;&quot;&gt;&lt;span style=&quot;background-color: initial;&quot;&gt;• Google Confiability&amp;nbsp;&lt;/span&gt;&lt;br&gt;&lt;/div&gt;&lt;div style=&quot;&quot;&gt;&lt;span style=&quot;background-color: initial;&quot;&gt;&lt;span style=&quot;font-size: 13px;&quot;&gt;• Less concern about LGPD&amp;nbsp;and&amp;nbsp;&lt;/span&gt;&lt;/span&gt;&lt;span style=&quot;font-size: 13px; background-color: initial;&quot;&gt;Cybersecurity&lt;/span&gt;&lt;/div&gt;&lt;div style=&quot;font-size: 13px;&quot;&gt;• Great community support&lt;/div&gt;&lt;div style=&quot;font-size: 13px;&quot;&gt;• Comprehensive and complete documentation&lt;/div&gt;&lt;div style=&quot;font-size: 13px;&quot;&gt;• Used in big success cases, in large companies (Accenture, Duolingo, Trivago, Alibaba, OneFootball, Halfbrick, The New York Times, Via Varejo)&lt;/div&gt;&lt;/font&gt;&lt;/div&gt;" style="text;html=1;strokeColor=none;fillColor=none;spacing=5;spacingTop=-20;whiteSpace=wrap;overflow=hidden;rounded=0;fontSize=8;align=left;container=0;" parent="1" vertex="1">
                    <mxGeometry x="12" y="660" width="1140" height="150" as="geometry"/>
                </mxCell>
                <mxCell id="71" value="App&amp;nbsp;Mobile 1" style="rounded=0;whiteSpace=wrap;html=1;fontStyle=1;container=0;" parent="1" vertex="1">
                    <mxGeometry x="449" y="511" width="120" height="54" as="geometry"/>
                </mxCell>
                <mxCell id="73" value="App&amp;nbsp;Mobile 2" style="rounded=0;whiteSpace=wrap;html=1;fontStyle=1;container=0;" parent="1" vertex="1">
                    <mxGeometry x="617" y="511" width="120" height="54" as="geometry"/>
                </mxCell>
                <mxCell id="74" value="App&amp;nbsp;Mobile &quot;N&quot;" style="rounded=0;whiteSpace=wrap;html=1;fontStyle=1;container=0;" parent="1" vertex="1">
                    <mxGeometry x="786" y="511" width="120" height="54" as="geometry"/>
                </mxCell>
                <mxCell id="88" value="" style="edgeStyle=elbowEdgeStyle;elbow=vertical;endArrow=classicThin;html=1;rounded=1;endSize=8;startSize=8;entryX=0.25;entryY=1;entryDx=0;entryDy=0;startArrow=classicThin;startFill=1;endFill=1;" parent="1" source="71" target="18" edge="1">
                    <mxGeometry width="50" height="50" relative="1" as="geometry">
                        <mxPoint x="604" y="468" as="sourcePoint"/>
                        <mxPoint x="712" y="410.5" as="targetPoint"/>
                        <Array as="points">
                            <mxPoint x="508" y="450.5"/>
                        </Array>
                    </mxGeometry>
                </mxCell>
                <mxCell id="89" value="" style="edgeStyle=elbowEdgeStyle;elbow=vertical;endArrow=classicThin;html=1;rounded=1;endSize=8;startSize=8;startArrow=classicThin;startFill=1;endFill=1;exitX=0.5;exitY=0;exitDx=0;exitDy=0;entryX=0.5;entryY=1;entryDx=0;entryDy=0;" parent="1" source="73" target="18" edge="1">
                    <mxGeometry width="50" height="50" relative="1" as="geometry">
                        <mxPoint x="615" y="480" as="sourcePoint"/>
                        <mxPoint x="676" y="420" as="targetPoint"/>
                        <Array as="points">
                            <mxPoint x="748" y="444"/>
                        </Array>
                    </mxGeometry>
                </mxCell>
                <mxCell id="90" value="" style="edgeStyle=elbowEdgeStyle;elbow=vertical;endArrow=classicThin;html=1;rounded=1;endSize=8;startSize=8;entryX=0.75;entryY=1;entryDx=0;entryDy=0;startArrow=classicThin;startFill=1;endFill=1;exitX=0.5;exitY=0;exitDx=0;exitDy=0;" parent="1" source="74" target="18" edge="1">
                    <mxGeometry width="50" height="50" relative="1" as="geometry">
                        <mxPoint x="771" y="468" as="sourcePoint"/>
                        <mxPoint x="843" y="413" as="targetPoint"/>
                        <Array as="points">
                            <mxPoint x="676" y="450.5"/>
                        </Array>
                    </mxGeometry>
                </mxCell>
                <mxCell id="93" value="" style="edgeStyle=elbowEdgeStyle;elbow=vertical;endArrow=classicThin;html=1;rounded=1;endSize=8;startSize=8;startArrow=classicThin;startFill=1;endFill=1;exitX=0.25;exitY=1;exitDx=0;exitDy=0;entryX=0.5;entryY=1;entryDx=0;entryDy=0;" parent="1" source="95" target="73" edge="1">
                    <mxGeometry width="50" height="50" relative="1" as="geometry">
                        <mxPoint x="954.75" y="463" as="sourcePoint"/>
                        <mxPoint x="917.6800000000001" y="546.922" as="targetPoint"/>
                        <Array as="points">
                            <mxPoint x="816" y="600"/>
                            <mxPoint x="952" y="523"/>
                            <mxPoint x="1012" y="499"/>
                        </Array>
                    </mxGeometry>
                </mxCell>
                <mxCell id="94" value="" style="edgeStyle=elbowEdgeStyle;elbow=vertical;endArrow=classicThin;html=1;rounded=1;endSize=8;startSize=8;startArrow=classicThin;startFill=1;endFill=1;exitX=0.75;exitY=1;exitDx=0;exitDy=0;entryX=0.5;entryY=1;entryDx=0;entryDy=0;" parent="1" source="95" target="71" edge="1">
                    <mxGeometry width="50" height="50" relative="1" as="geometry">
                        <mxPoint x="1056.25" y="463" as="sourcePoint"/>
                        <mxPoint x="686.9999999999998" y="577" as="targetPoint"/>
                        <Array as="points">
                            <mxPoint x="780" y="612"/>
                            <mxPoint x="964" y="535"/>
                            <mxPoint x="1024" y="511"/>
                        </Array>
                    </mxGeometry>
                </mxCell>
                <mxCell id="3" value="&lt;b&gt;[Web App]&amp;nbsp;&lt;/b&gt;Application" style="rounded=0;whiteSpace=wrap;html=1;container=0;" parent="1" vertex="1">
                    <mxGeometry x="459" y="78" width="648" height="50" as="geometry"/>
                </mxCell>
                <mxCell id="15" value="" style="edgeStyle=elbowEdgeStyle;elbow=vertical;endArrow=classic;html=1;endSize=8;startSize=8;exitX=0.5;exitY=0;exitDx=0;exitDy=0;entryX=0.687;entryY=1.08;entryDx=0;entryDy=0;startArrow=classicThin;startFill=1;rounded=1;entryPerimeter=0;" parent="1" source="95" target="3" edge="1">
                    <mxGeometry width="50" height="50" relative="1" as="geometry">
                        <mxPoint x="401" y="186" as="sourcePoint"/>
                        <mxPoint x="451" y="136" as="targetPoint"/>
                        <Array as="points">
                            <mxPoint x="759" y="156"/>
                        </Array>
                    </mxGeometry>
                </mxCell>
                <mxCell id="18" value="🔗 [API] Firebase" style="swimlane;whiteSpace=wrap;html=1;container=0;" parent="1" vertex="1">
                    <mxGeometry x="459" y="176.5" width="432" height="234.5" as="geometry"/>
                </mxCell>
                <mxCell id="23" value="" style="edgeStyle=elbowEdgeStyle;elbow=vertical;endArrow=classicThin;html=1;rounded=1;endSize=8;startSize=8;entryX=0.5;entryY=1;entryDx=0;entryDy=0;startArrow=classicThin;startFill=1;exitX=0.5;exitY=0;exitDx=0;exitDy=0;endFill=1;" parent="1" source="18" target="3" edge="1">
                    <mxGeometry width="50" height="50" relative="1" as="geometry">
                        <mxPoint x="675" y="180" as="sourcePoint"/>
                        <mxPoint x="603" y="140" as="targetPoint"/>
                        <Array as="points">
                            <mxPoint x="756" y="156"/>
                            <mxPoint x="579" y="168"/>
                        </Array>
                    </mxGeometry>
                </mxCell>
                <mxCell id="22" value="🔒Firebase Auth" style="swimlane;whiteSpace=wrap;html=1;container=0;dashed=1;fillColor=none;strokeColor=#FFFF00;" parent="1" vertex="1">
                    <mxGeometry x="471" y="213.5" width="625" height="184" as="geometry"/>
                </mxCell>
                <mxCell id="106" value="Chat bot" style="rounded=0;whiteSpace=wrap;html=1;container=0;" parent="22" vertex="1">
                    <mxGeometry x="455.5" y="35.5" width="158" height="28" as="geometry"/>
                </mxCell>
                <mxCell id="14" value="NLP Model" style="rounded=0;whiteSpace=wrap;html=1;container=0;" parent="22" vertex="1">
                    <mxGeometry x="455" y="144.5" width="158" height="29" as="geometry"/>
                </mxCell>
                <mxCell id="24" value="Realtime Database" style="rounded=0;whiteSpace=wrap;html=1;fontStyle=1;container=0;" parent="1" vertex="1">
                    <mxGeometry x="483" y="249" width="120" height="60" as="geometry"/>
                </mxCell>
                <mxCell id="25" value="&lt;b&gt;File Storage&lt;/b&gt;" style="rounded=0;whiteSpace=wrap;html=1;container=0;" parent="1" vertex="1">
                    <mxGeometry x="615" y="249" width="120" height="60" as="geometry"/>
                </mxCell>
                <mxCell id="26" value="&lt;b&gt;Cloud Mensages&lt;/b&gt; &lt;font style=&quot;font-size: 8px;&quot;&gt;(Push notifications)&lt;/font&gt;" style="rounded=0;whiteSpace=wrap;html=1;container=0;" parent="1" vertex="1">
                    <mxGeometry x="747" y="249" width="120" height="60" as="geometry"/>
                </mxCell>
                <mxCell id="30" value="A/B Testing" style="rounded=0;whiteSpace=wrap;html=1;fontStyle=1;container=0;" parent="1" vertex="1">
                    <mxGeometry x="483" y="327" width="120" height="60" as="geometry"/>
                </mxCell>
                <mxCell id="31" value="Monitoring&lt;span style=&quot;color: rgba(0, 0, 0, 0); font-family: monospace; font-size: 0px; font-weight: 400; text-align: start;&quot;&gt;%3CmxGraphModel%3E%3Croot%3E%3CmxCell%20id%3D%220%22%2F%3E%3CmxCell%20id%3D%221%22%20parent%3D%220%22%2F%3E%3CmxCell%20id%3D%222%22%20value%3D%22A%2FB%20Testing%22%20style%3D%22rounded%3D0%3BwhiteSpace%3Dwrap%3Bhtml%3D1%3BfontStyle%3D1%22%20vertex%3D%221%22%20parent%3D%221%22%3E%3CmxGeometry%20x%3D%22480%22%20y%3D%22432%22%20width%3D%22120%22%20height%3D%2260%22%20as%3D%22geometry%22%2F%3E%3C%2FmxCell%3E%3C%2Froot%3E%3C%2FmxGraphModel%3E&lt;/span&gt;" style="rounded=0;whiteSpace=wrap;html=1;fontStyle=1;container=0;" parent="1" vertex="1">
                    <mxGeometry x="615" y="327" width="120" height="60" as="geometry"/>
                </mxCell>
                <mxCell id="32" value="Analytics" style="rounded=0;whiteSpace=wrap;html=1;fontStyle=1;container=0;" parent="1" vertex="1">
                    <mxGeometry x="747" y="327" width="120" height="60" as="geometry"/>
                </mxCell>
                <mxCell id="16" value="" style="endArrow=classicThin;html=1;exitX=0.5;exitY=0;exitDx=0;exitDy=0;entryX=0.5;entryY=1;entryDx=0;entryDy=0;startArrow=classicThin;startFill=1;endFill=1;" parent="1" source="14" target="13" edge="1">
                    <mxGeometry width="50" height="50" relative="1" as="geometry">
                        <mxPoint x="845" y="239" as="sourcePoint"/>
                        <mxPoint x="895" y="189" as="targetPoint"/>
                    </mxGeometry>
                </mxCell>
                <mxCell id="107" value="" style="endArrow=classicThin;html=1;exitX=0.5;exitY=0;exitDx=0;exitDy=0;entryX=0.5;entryY=1;entryDx=0;entryDy=0;startArrow=classicThin;startFill=1;endFill=1;" parent="1" source="13" target="106" edge="1">
                    <mxGeometry width="50" height="50" relative="1" as="geometry">
                        <mxPoint x="1017" y="365" as="sourcePoint"/>
                        <mxPoint x="1017" y="333" as="targetPoint"/>
                    </mxGeometry>
                </mxCell>
                <mxCell id="113" value="📱Mobile Suite" style="swimlane;whiteSpace=wrap;html=1;container=0;dashed=1;fillColor=none;strokeColor=#0B529E;" parent="1" vertex="1">
                    <mxGeometry x="435" y="467" width="489" height="118" as="geometry"/>
                </mxCell>
                <mxCell id="121" value="👨‍👩‍👧‍👧 [Client] Users" style="swimlane;whiteSpace=wrap;html=1;dashed=1;container=0;" parent="1" vertex="1">
                    <mxGeometry x="168" y="36" width="180" height="396" as="geometry">
                        <mxRectangle x="160" y="410" width="200" height="30" as="alternateBounds"/>
                    </mxGeometry>
                </mxCell>
                <mxCell id="5" value="Client" style="shape=umlActor;verticalLabelPosition=bottom;verticalAlign=top;html=1;outlineConnect=0;container=0;" parent="121" vertex="1">
                    <mxGeometry x="36" y="153" width="30" height="60" as="geometry"/>
                </mxCell>
                <mxCell id="122" value="Adm" style="shape=umlActor;verticalLabelPosition=bottom;verticalAlign=top;html=1;outlineConnect=0;container=0;" parent="121" vertex="1">
                    <mxGeometry x="120" y="153" width="30" height="60" as="geometry"/>
                </mxCell>
                <mxCell id="126" value="" style="edgeStyle=elbowEdgeStyle;elbow=horizontal;endArrow=classic;html=1;rounded=1;endSize=8;startSize=8;exitX=1;exitY=0.75;exitDx=0;exitDy=0;entryX=0;entryY=0.5;entryDx=0;entryDy=0;startArrow=classicThin;startFill=1;" parent="1" source="121" target="113" edge="1">
                    <mxGeometry width="50" height="50" relative="1" as="geometry">
                        <mxPoint x="408" y="326" as="sourcePoint"/>
                        <mxPoint x="458" y="276" as="targetPoint"/>
                    </mxGeometry>
                </mxCell>
                <mxCell id="127" value="" style="edgeStyle=elbowEdgeStyle;elbow=horizontal;endArrow=classic;html=1;rounded=1;endSize=8;startSize=8;exitX=1;exitY=0.5;exitDx=0;exitDy=0;entryX=0;entryY=0.5;entryDx=0;entryDy=0;startArrow=classicThin;startFill=1;" parent="1" source="121" target="3" edge="1">
                    <mxGeometry width="50" height="50" relative="1" as="geometry">
                        <mxPoint x="360" y="345" as="sourcePoint"/>
                        <mxPoint x="447" y="538" as="targetPoint"/>
                    </mxGeometry>
                </mxCell>
                <mxCell id="135" value="" style="group" parent="1" vertex="1" connectable="0">
                    <mxGeometry x="904" y="178.5" width="203" height="234.5" as="geometry"/>
                </mxCell>
                <mxCell id="95" value="🔗&amp;nbsp;[API] Vipera AI" style="swimlane;whiteSpace=wrap;html=1;container=0;" parent="135" vertex="1">
                    <mxGeometry width="203" height="234.5" as="geometry"/>
                </mxCell>
                <mxCell id="13" value="Training&amp;nbsp;algorithm" style="rounded=0;whiteSpace=wrap;html=1;container=0;" parent="135" vertex="1">
                    <mxGeometry x="22" y="124.5" width="158" height="28" as="geometry"/>
                </mxCell>
            </root>
        </mxGraphModel>
    </diagram>
</mxfile>